<?xml version="1.0" standalone="no"?>
<!DOCTYPE svg PUBLIC "-//W3C//DTD SVG 20010904//EN"
 "http://www.w3.org/TR/2001/REC-SVG-20010904/DTD/svg10.dtd">
<svg version="1.0" xmlns="http://www.w3.org/2000/svg"
 width="1236.000000pt" height="1280.000000pt" viewBox="0 0 1236.000000 1280.000000"
 preserveAspectRatio="xMidYMid meet">
<metadata>
Created by potrace 1.15, written by Peter Selinger 2001-2017
</metadata>
<g transform="translate(0.000000,1280.000000) scale(0.100000,-0.100000)"
fill="#000000" stroke="none">
<path d="M2885 12794 c-461 -46 -798 -140 -1150 -323 -865 -449 -1471 -1266
-1669 -2251 -48 -235 -61 -382 -60 -680 0 -304 14 -464 65 -765 196 -1142 825
-2312 2003 -3725 356 -427 616 -717 1581 -1765 740 -804 1063 -1171 1409
-1604 444 -554 759 -1025 1007 -1505 l87 -169 52 103 c271 541 657 1102 1216
1770 370 443 597 693 1674 1851 873 937 1359 1505 1801 2104 788 1066 1232
2011 1394 2968 46 276 59 432 59 742 0 309 -9 405 -60 669 -132 680 -493 1322
-999 1779 -228 206 -438 348 -710 482 -382 188 -737 281 -1155 304 -860 46
-1683 -276 -2305 -905 -440 -444 -746 -1023 -874 -1652 -34 -167 -61 -368 -62
-469 -1 -85 -17 -57 -18 32 -1 93 -28 294 -62 459 -247 1211 -1150 2181 -2294
2465 -248 61 -399 81 -670 85 -121 2 -238 2 -260 0z"/>
</g>
</svg>
